<?xml version="1.0" encoding="utf-8"?>
<!-- Generator: Adobe Illustrator 16.0.0, SVG Export Plug-In . SVG Version: 6.00 Build 0)  -->
<!DOCTYPE svg PUBLIC "-//W3C//DTD SVG 1.1//EN" "http://www.w3.org/Graphics/SVG/1.1/DTD/svg11.dtd">
<svg version="1.1" id="Слой_1" xmlns="http://www.w3.org/2000/svg" xmlns:xlink="http://www.w3.org/1999/xlink" x="0px" y="0px"
	 width="60px" height="96px" viewBox="0 0 60 96" enable-background="new 0 0 60 96" xml:space="preserve">
<path fill="#D24A45" d="M48,75.0009766C48,76.6591797,46.6582031,78,45,78H15c-1.6582031,0-3-1.3408203-3-2.9990234s1.3417969-3,3-3
	h30C46.6582031,72.0009766,48,73.3427734,48,75.0009766z M45,81.0009766H15c-1.6582031,0-3,1.3408203-3,3
	C12,85.6591797,13.3417969,87,15,87h30c1.6582031,0,3-1.3408203,3-2.9990234C48,82.3417969,46.6582031,81.0009766,45,81.0009766z
	 M24,96h12c3.3164063,0,6-2.6835938,6-5.9990234H18C18,93.3164063,20.6835938,96,24,96z M60,30
	c0,16.3125-9.8320313,18.2109375-11.6777344,36c0,1.6591797-1.3417969,3.0009766-3,3.0009766H14.6777344
	c-1.6582031,0-3-1.3417969-3-3.0009766H11.671875C9.8320313,48.2109375,0,46.3125,0,30C0,13.4306641,13.4296875,0,30,0
	S60,13.4306641,60,30z M42.1464844,21.0009766c-34.875,8.2490234-18,30-18,30c0-12.0009766,8.8125-14.8134766,9-14.4375
	c-6.1875,6-9,26.4375-9,26.4375h6c0,0,0-6.0009766,0-12C47.2089844,51.9384766,42.1464844,23.0625,42.1464844,21.0009766z"/>
</svg>
