<?xml version="1.0" encoding="utf-8"?>
<!-- Generator: Adobe Illustrator 16.0.0, SVG Export Plug-In . SVG Version: 6.00 Build 0)  -->
<!DOCTYPE svg PUBLIC "-//W3C//DTD SVG 1.1//EN" "http://www.w3.org/Graphics/SVG/1.1/DTD/svg11.dtd">
<svg version="1.1" id="Слой_1" xmlns="http://www.w3.org/2000/svg" xmlns:xlink="http://www.w3.org/1999/xlink" x="0px" y="0px"
	 width="99px" height="76px" viewBox="0 0 99 76" enable-background="new 0 0 99 76" xml:space="preserve">
<path fill="#D24A43" d="M0,76h38.796875V18.9785156H0V76z M20.2167969,73.1416016
	c-1.0327148,0-1.8686523-0.828125-1.8686523-1.8359375s0.8359375-1.8300781,1.8686523-1.8300781
	c1.0336914,0,1.8710938,0.8222656,1.8710938,1.8300781C22.0908203,72.3134766,21.2504883,73.1416016,20.2167969,73.1416016z
	 M5.6103516,24.4726563h27.5800781l-0.0019531,42.0722656H5.6103516V24.4726563z"/>
<path fill="#D24A43" d="M19.1884766,5.3652344h62.1733398v24.71875h5.4794922V0H13.7099609v16.5400391h5.4785156V5.3652344z"/>
<path fill="#D24A43" d="M41.2973633,41.875h28.8129883v5.3662109H41.2973633V41.875z"/>
<path fill="#D24A43" d="M72.9428711,32.1650391v42.9433594H99V32.1650391H72.9428711z M86.5498047,33.9443359
	c0.3481445,0,0.6289063,0.2744141,0.6289063,0.6162109c0,0.3378906-0.2807617,0.6181641-0.6289063,0.6181641
	c-0.3476563,0-0.6303711-0.2802734-0.6303711-0.6181641C85.9194336,34.2167969,86.2021484,33.9443359,86.5498047,33.9443359z
	 M82.8022461,36.0039063h7.4956055v0.5888672h-7.4956055V36.0039063z M86.3037109,73.2548828
	c-0.8276367,0-1.503418-0.6621094-1.503418-1.4755859c0-0.8095703,0.6713867-1.4716797,1.503418-1.4716797
	c0.828125,0,1.5039063,0.6582031,1.5039063,1.4716797S87.1318359,73.2548828,86.3037109,73.2548828z M94.8188477,68.1972656
	c-6.7670898,0.0380859-14.340332,0.0615234-17.6948242,0.0351563V38.7060547l17.6948242-0.0039063V68.1972656z"/>
<path fill="#D24A43" d="M49.2275391,49.4375h-7.9301758v3.2519531h19.3134766v1.4248047H41.2973633v2.9404297h28.8129883V49.4375
	H51.3125H49.2275391z"/>
</svg>
