<?xml version="1.0" encoding="utf-8"?>
<!-- Generator: Adobe Illustrator 16.0.0, SVG Export Plug-In . SVG Version: 6.00 Build 0)  -->
<!DOCTYPE svg PUBLIC "-//W3C//DTD SVG 1.1//EN" "http://www.w3.org/Graphics/SVG/1.1/DTD/svg11.dtd">
<svg version="1.1" id="Слой_1" xmlns="http://www.w3.org/2000/svg" xmlns:xlink="http://www.w3.org/1999/xlink" x="0px" y="0px"
	 width="93px" height="75.0009766px" viewBox="0 0 93 75.0009766" enable-background="new 0 0 93 75.0009766" xml:space="preserve">
<path fill="#D24A43" d="M74.2944336,0L62.0498047,18.4189453L49.3952637,0H74.2944336z M60.105957,22.6308594H32.9431152
	l13.5795898,51.3994141L60.105957,22.6308594z M33.8498535,19.6123047h25.3474121L46.5227051,1.1640625L33.8498535,19.6123047z
	 M30.9975586,18.4189453L43.651123,0H18.7539063L30.9975586,18.4189453z M43.6450195,75.0009766L29.809082,22.6308594H0
	L43.6450195,75.0009766z M0.0424805,19.6123047h28.1142578L15.909668,1.1894531L0.0424805,19.6123047z M77.1162109,1.2255859
	L64.8925781,19.6123047h28.0644531L77.1162109,1.2255859z M63.2387695,22.6308594L49.4006348,74.9951172L93,22.6308594H63.2387695z"
	/>
</svg>
