<?xml version="1.0" encoding="utf-8"?>
<!-- Generator: Adobe Illustrator 16.0.0, SVG Export Plug-In . SVG Version: 6.00 Build 0)  -->
<!DOCTYPE svg PUBLIC "-//W3C//DTD SVG 1.1//EN" "http://www.w3.org/Graphics/SVG/1.1/DTD/svg11.dtd">
<svg version="1.1" id="Слой_1" xmlns="http://www.w3.org/2000/svg" xmlns:xlink="http://www.w3.org/1999/xlink" x="0px" y="0px"
	 width="71.9960938px" height="107.9946289px" viewBox="0 0 71.9960938 107.9946289"
	 enable-background="new 0 0 71.9960938 107.9946289" xml:space="preserve">
<path fill="#D24A46" d="M17.1289063,97.0415039c0,1.1894531,0.9643555,2.1660156,2.1430664,2.1660156h31.6791992
	c1.1791992,0,2.1435547-0.9765625,2.1435547-2.1660156v-4.9638672H17.1289063V97.0415039z"/>
<path fill="#D24A46" d="M16.4106445,37.1865234l0.0107422-15.8481445c0-1.8300781,0.6860352-3.5424805,1.9399414-4.8217773
	c1.3930664-1.40625,3.3862305-2.2094727,5.4868164-2.2094727c1.6396484,0,3.215332,0.5107422,4.4370117,1.4199219
	c1.4790039,1.1049805,2.4003906,2.7739258,2.5932617,4.6791992c0,0.043457,0.8466797,8.309082,1.6074219,15.7080078
	c5.3261719-3.1630859,8.9165039-9.0117188,8.9165039-15.7080078c0-10.0522461-8.059082-18.199707-18.0043945-18.199707
	c-9.9448242,0-18.0043945,8.1474609-18.0043945,18.199707C5.3828125,27.9462891,9.9272461,34.4238281,16.4106445,37.1865234z"/>
<path fill="#D24A46" d="M58.7104492,57.8666992c0-2.1123047-1.3398438-3.9863281-3.3330078-4.6352539
	c-5.9477539-1.9619141-17.9511719-5.871582-19.7836914-6.2412109c-0.5678711-0.1069336-1.125-0.1606445-1.6611328-0.1606445
	c-1.4467773,0-2.7114258,0.3994141-3.472168,1.0830078H30.449707c0,0,0,0,0-0.012207
	c-0.0102539-0.0854492-2.7753906-27.1132813-2.7753906-27.1572266c-0.2250977-2.1674805-2.0043945-3.1958008-3.8369141-3.1958008
	c-2.0791016,0-4.2226563,1.3208008-4.2114258,3.7792969L19.6040039,65.125c0,0.5205078-0.375,0.9541016-0.8891602,1.0288086
	c-0.0107422,0-0.0107422,0-0.0214844,0c-0.0424805,0.012207-0.0961914,0.012207-0.1396484,0.012207
	c-0.0102539,0-0.0209961,0-0.0317383,0c-1.4575195-0.0439453-4.7475586-0.0869141-7.9521484-4.7783203
	c-0.4287109-0.6171875-0.8144531-1.1796875-1.1679688-1.7006836c-1.1147461-1.6137695-2.6044922-2.3061523-4.0083008-2.3061523
	c-2.4648438,0-4.6831055,2.1538086-4.1474609,5.3725586c0.7719727,4.6914063,5.8515625,15.6206055,15.8613281,25.8701172h35.9658203
	l3.6328125-6.2080078c1.296875-2.1992188,1.9829102-4.7119141,1.9829102-7.2797852L58.7104492,57.8666992z"/>
</svg>
