<svg xmlns="http://www.w3.org/2000/svg" viewbox="0 0 37 31">
  <path d="M242.314,6269v-0.84a1.814,1.814,0,1,0-3.628,0V6269A1.814,1.814,0,1,0,242.314,6269Zm1.245,1.03a3.173,3.173,0,0,1-6.118,0h-12.5a4.954,4.954,0,0,1-2.2-.52v8.48a2.981,2.981,0,0,0,2.945,3h29.623a2.982,2.982,0,0,0,2.946-3v-8.48a4.965,4.965,0,0,1-2.2.52H243.559Zm12.372-15.22h-7.07a5.654,5.654,0,0,0-5.529-4.82h-5.665a5.655,5.655,0,0,0-5.529,4.82h-7.07a3.052,3.052,0,0,0-3.068,3.01v6.94a2.98,2.98,0,0,0,2.945,3.01H237.3a3.289,3.289,0,0,1,.981-2.2c0.018-.02.038-0.03,0.057-0.05a3.39,3.39,0,0,1,.405-0.33,1.144,1.144,0,0,1,.164-0.09c0.119-.07.237-0.14,0.366-0.2,0.1-.04.21-0.07,0.316-0.1a2.518,2.518,0,0,1,.273-0.08,2.749,2.749,0,0,1,1.544.08,3.211,3.211,0,0,1,.315.1c0.129,0.06.246,0.13,0.365,0.2a1.284,1.284,0,0,1,.166.09,3.38,3.38,0,0,1,.4.33c0.018,0.02.04,0.03,0.057,0.05a3.285,3.285,0,0,1,.981,2.2h12.357a2.974,2.974,0,0,0,2.946-3.01v-6.94A3.051,3.051,0,0,0,255.931,6254.81Zm-20.957,0a2.844,2.844,0,0,1,2.693-2h5.665a2.846,2.846,0,0,1,2.693,2H234.974Z" transform="translate(-222 -6250)"/>
</svg>
