<svg xmlns="http://www.w3.org/2000/svg" viewbox="0 0 43 38">
  <path d="M1680.5,6276.43c1.19,0,11.12-12.27,11.12-18.38a11.12,11.12,0,0,0-22.24,0C1669.38,6264.16,1679.35,6276.43,1680.5,6276.43Zm-7.19-18.76a7.19,7.19,0,1,1,7.19,7.14A7.161,7.161,0,0,1,1673.31,6257.67Zm26.95,10.3a1.859,1.859,0,0,0-1.86-1.84h-6.78a0.465,0.465,0,0,0-.48.29c-0.36.6-.32,0.54-0.66,1.1a0.205,0.205,0,0,0,.18.34h7.74a0.12,0.12,0,0,1,.12.11l1.74,15.18a0.129,0.129,0,0,1-.12.12h-39.28a0.129,0.129,0,0,1-.12-0.12l1.74-15.18a0.12,0.12,0,0,1,.12-0.11h7.68c0.16,0,.41-0.09.13-0.55-0.34-.54-0.21-0.39-0.56-0.98a0.512,0.512,0,0,0-.56-0.2h-6.69a1.859,1.859,0,0,0-1.86,1.84l-1.74,15.18a1.854,1.854,0,0,0,1.86,1.85h39.28a1.854,1.854,0,0,0,1.86-1.85Z" transform="translate(-1659 -6247)"/>
</svg>
